<?xml version="1.0" encoding="utf-8"?>
<!-- Generator: Adobe Illustrator 19.0.0, SVG Export Plug-In . SVG Version: 6.00 Build 0)  -->
<svg version="1.1" id="Layer_1" xmlns="http://www.w3.org/2000/svg" xmlns:xlink="http://www.w3.org/1999/xlink" x="0px" y="0px"
	 viewBox="0 0 40 40" style="enable-background:new 0 0 40 40;" xml:space="preserve">
<style type="text/css">
	.st0{fill:none;stroke:#B3B3B3;stroke-width:5;stroke-miterlimit:10;}
	.st1{fill:#B3B3B3;}
	.st2{fill:none;stroke:#808080;stroke-width:0.25;stroke-linecap:round;stroke-miterlimit:10;}
</style>
<path id="XMLID_14_" class="st0" d="M4.1,33.6L19.9,6.3c0.1-0.1,0.2-0.1,0.2,0l15.8,27.3c0.1,0.1,0,0.2-0.1,0.2H4.2
	C4.1,33.8,4.1,33.7,4.1,33.6z"/>
<g id="XMLID_15_">
	<path id="XMLID_92_" class="st1" d="M19.8,26.6c0,0-0.2-0.6-0.4-1.6c-0.1-0.5-0.2-1.1-0.3-1.7c-0.1-0.6-0.2-1.3-0.3-2
		c-0.1-0.7-0.3-1.4-0.4-2c0-0.6,0.2-1.2,0.4-1.8c0.2-0.5,0.4-1,0.7-1.3c0.2-0.3,0.4-0.6,0.4-0.6h0.3c0,0,0.2,0.3,0.4,0.6
		c0.2,0.3,0.5,0.8,0.7,1.3c0.2,0.5,0.4,1.1,0.4,1.8c0,0.6-0.3,1.3-0.4,2c-0.1,0.7-0.2,1.4-0.3,2c-0.1,0.6-0.2,1.2-0.3,1.7
		c-0.2,1-0.4,1.6-0.4,1.6H19.8z"/>
</g>
<circle id="XMLID_16_" class="st1" cx="20" cy="28.6" r="1.2"/>
<line id="XMLID_36_" class="st2" x1="23" y1="7.1" x2="36.2" y2="30.1"/>
<line id="XMLID_85_" class="st2" x1="19.9" y1="16.4" x2="20" y2="24.8"/>
<line id="XMLID_84_" class="st2" x1="17" y1="7.1" x2="3.8" y2="30.1"/>
</svg>
